# xmcd CD database file generated by Grip 3.2.0
# 
# Track frame offsets:
#       150
#       19042
#       41409
#       58182
#       73007
#       89218
#       103534
#       123742
#       145239
#       164122
#       188634
#       203926
#       220821
# 
# Disc length: 3198 seconds
# 
# Revision: 4
# Processed by: cddbd v1.5.2PL0 Copyright (c) Steve Scherf et al.
# Submitted via: Grip 3.2.0
# 
DISCID=ca0c7c0d
DTITLE=Donal Hinely - We Built a Fire
DYEAR=1900
DGENRE=Country
TTITLE0=Gasoline
TTITLE1=Drunkard Moon
TTITLE2=These Are the Days
TTITLE3=4225 Wellington Arms
TTITLE4=Take My Heart
TTITLE5=Cynthianna
TTITLE6=Hey Paul Revere
TTITLE7=Easier
TTITLE8=Long Way Home
TTITLE9=Promise of a Dream
TTITLE10=Henry Ford
TTITLE11=Twisted
TTITLE12=We Built a Fire
EXTD=
EXTT0=
EXTT1=
EXTT2=
EXTT3=
EXTT4=
EXTT5=
EXTT6=
EXTT7=
EXTT8=
EXTT9=
EXTT10=
EXTT11=
EXTT12=
PLAYORDER=
